<?xml version="1.0" standalone="no"?>
<!DOCTYPE svg PUBLIC "-//W3C//DTD SVG 20010904//EN"
 "http://www.w3.org/TR/2001/REC-SVG-20010904/DTD/svg10.dtd">
<svg version="1.0" xmlns="http://www.w3.org/2000/svg"
 width="512.000000pt" height="512.000000pt" viewBox="0 0 512.000000 512.000000"
 preserveAspectRatio="xMidYMid meet">

<g transform="translate(0.000000,512.000000) scale(0.100000,-0.100000)"
fill="#333" stroke="none">
<path d="M2516 4657 l-26 -26 0 -1102 0 -1101 23 14 c36 24 643 378 1282 747
325 188 596 349 603 358 21 28 15 70 -14 92 -15 12 -35 21 -45 21 -11 0 -90
-41 -177 -90 l-157 -90 -15 22 c-102 153 -250 309 -404 425 -56 42 -100 81
-98 87 2 6 41 77 88 158 46 81 84 156 84 166 0 33 -38 72 -71 72 -40 0 -51
-14 -149 -178 -59 -99 -90 -141 -100 -138 -8 2 -60 23 -114 45 -156 65 -312
102 -528 126 l-58 6 0 179 c0 198 -5 214 -67 226 -26 5 -37 1 -57 -19z"/>
<path d="M1481 4384 c-12 -15 -21 -35 -21 -45 0 -11 48 -104 107 -209 87 -156
111 -191 135 -199 50 -18 98 15 98 67 0 23 -204 382 -227 400 -28 21 -70 15
-92 -14z"/>
<path d="M736 3639 c-28 -22 -35 -64 -13 -91 18 -24 376 -228 399 -228 52 0
85 48 67 98 -8 24 -43 48 -199 135 -105 59 -198 107 -209 107 -10 0 -30 -9
-45 -21z"/>
<path d="M463 2604 c-20 -20 -24 -31 -19 -57 12 -64 24 -67 263 -67 214 0 214
0 238 25 31 30 33 77 5 105 -19 19 -33 20 -240 20 l-221 0 -26 -26z"/>
<path d="M4170 2610 c-28 -28 -26 -75 5 -105 l24 -25 216 0 217 0 29 29 c35
36 37 64 4 96 l-24 25 -226 0 c-212 0 -226 -1 -245 -20z"/>
<path d="M912 1691 c-101 -59 -187 -113 -192 -121 -18 -29 -11 -68 16 -89 15
-12 35 -21 45 -21 11 0 104 48 209 107 156 87 191 111 199 135 18 52 -16 99
-71 97 -13 0 -105 -49 -206 -108z"/>
<path d="M3957 1789 c-27 -16 -38 -53 -26 -87 8 -24 43 -48 199 -135 105 -59
198 -107 209 -107 10 0 30 9 45 21 28 22 35 64 14 91 -20 26 -377 228 -401
228 -12 0 -30 -5 -40 -11z"/>
<path d="M1699 1189 c-19 -7 -51 -54 -132 -199 -59 -104 -107 -198 -107 -209
0 -10 9 -30 21 -45 22 -29 64 -35 92 -13 25 19 227 377 227 403 0 47 -53 80
-101 63z"/>
<path d="M3363 1190 c-25 -10 -43 -39 -43 -69 0 -23 204 -380 228 -398 27 -22
69 -15 91 13 12 15 21 35 21 45 0 11 -48 104 -107 209 -89 159 -111 191 -136
200 -17 5 -30 10 -31 9 -1 0 -11 -4 -23 -9z"/>
<path d="M2510 950 c-19 -19 -20 -33 -20 -245 l0 -226 25 -24 c32 -33 60 -31
96 4 l29 29 0 217 0 216 -25 24 c-30 31 -77 33 -105 5z"/>
</g>
</svg>
